<?xml version="1.0" encoding="UTF-8" standalone="no"?>
<!-- Created with Inkscape (http://www.inkscape.org/) -->

<svg
   width="197.4277mm"
   height="16.109453mm"
   viewBox="0 0 197.4277 16.109452"
   version="1.1"
   id="svg2107"
   inkscape:version="1.2.2 (b0a8486, 2022-12-01)"
   sodipodi:docname="EPaperTwo.svg"
   xmlns:inkscape="http://www.inkscape.org/namespaces/inkscape"
   xmlns:sodipodi="http://sodipodi.sourceforge.net/DTD/sodipodi-0.dtd"
   xmlns="http://www.w3.org/2000/svg"
   xmlns:svg="http://www.w3.org/2000/svg">
  <sodipodi:namedview
     id="namedview2109"
     pagecolor="#ffffff"
     bordercolor="#000000"
     borderopacity="0.25"
     inkscape:showpageshadow="2"
     inkscape:pageopacity="0.0"
     inkscape:pagecheckerboard="0"
     inkscape:deskcolor="#d1d1d1"
     inkscape:document-units="mm"
     showgrid="false"
     inkscape:zoom="0.61171749"
     inkscape:cx="640.00132"
     inkscape:cy="126.69247"
     inkscape:window-width="747"
     inkscape:window-height="847"
     inkscape:window-x="720"
     inkscape:window-y="25"
     inkscape:window-maximized="0"
     inkscape:current-layer="layer1" />
  <defs
     id="defs2104" />
  <g
     inkscape:label="Layer 1"
     inkscape:groupmode="layer"
     id="layer1"
     transform="translate(114.12186,-8.840206)">
    <g
       id="g2070"
       transform="translate(-114.34719,-17.499277)">
      <g
         aria-label="English"
         id="text239-4-0"
         style="font-size:21.3749px;font-family:staatliches;letter-spacing:-1pt;fill-rule:evenodd;stroke:#000000;stroke-width:0;stroke-opacity:0;paint-order:fill markers stroke">
        <path
           d="m 0.58915069,41.729855 q -0.0854996,0 -0.0854996,-0.106875 l 0.0213749,-14.684557 q 0,-0.0855 0.0854996,-0.0855 H 7.4718688 q 0.0855,0 0.0855,0.106874 v 2.393989 q 0,0.0855 -0.0855,0.0855 H 3.0900141 v 3.334484 h 4.3818547 q 0.0855,0 0.0855,0.0855 l 0.021375,2.415364 q 0,0.0855 -0.0855,0.0855 H 3.0900141 v 3.740608 h 4.4032296 q 0.0855,0 0.0855,0.106874 v 2.436739 q 0,0.0855 -0.0855,0.0855 z"
           style="stroke-width:0.556634"
           id="path2072" />
        <path
           d="m 8.3401106,41.729855 q -0.1709992,0 -0.1709992,-0.149625 L 8.1477365,27.023923 q 0,-0.170999 0.1709992,-0.170999 h 1.9237413 l 3.612358,8.421711 -0.106874,-8.250712 q 0,-0.170999 0.192374,-0.170999 h 2.116115 q 0.128249,0 0.128249,0.170999 l 0.02138,14.577682 q 0,0.12825 -0.106874,0.12825 h -1.880992 l -3.697858,-7.865964 0.149625,7.694964 q 0,0.171 -0.192374,0.171 z"
           style="stroke-width:0.556634"
           id="path2074" />
        <path
           d="m 20.643938,41.943604 q -1.154245,0 -2.094741,-0.577123 -0.940495,-0.577122 -1.517618,-1.538993 -0.555747,-0.983245 -0.555747,-2.180239 v -6.775844 q 0,-1.154245 0.555747,-2.116115 0.577123,-0.983246 1.517618,-1.560368 0.961871,-0.577122 2.094741,-0.577122 1.175619,0 2.116115,0.577122 0.96187,0.555747 1.517618,1.517618 0.555747,0.961871 0.555747,2.158865 v 0.983245 q 0,0.0855 -0.106874,0.0855 h -2.393989 q -0.0855,0 -0.0855,-0.0855 v -0.812246 q 0,-0.812246 -0.470248,-1.346619 -0.448873,-0.534372 -1.132869,-0.534372 -0.619873,0 -1.111495,0.512998 -0.470248,0.512997 -0.470248,1.196994 v 6.775844 q 0,0.705371 0.470248,1.218369 0.470248,0.491623 1.111495,0.491623 0.683996,0 1.132869,-0.491623 0.470248,-0.491623 0.470248,-1.218369 v -1.047371 h -1.496243 q -0.106874,0 -0.106874,-0.106874 v -2.393989 q 0,-0.106875 0.106874,-0.106875 h 3.997107 q 0.0855,0 0.0855,0.106875 v 3.548234 q 0,1.196994 -0.577122,2.180239 -0.555748,0.961871 -1.496243,1.538993 -0.940496,0.577123 -2.116116,0.577123 z"
           style="stroke-width:0.556634"
           id="path2076" />
        <path
           d="m 25.103177,41.729855 q -0.0855,0 -0.0855,-0.106875 l 0.02137,-14.663182 q 0,-0.106874 0.106874,-0.106874 h 2.372614 q 0.106875,0 0.106875,0.106874 l -0.02138,12.140944 h 4.403229 q 0.106875,0 0.106875,0.106874 v 2.415364 q 0,0.106875 -0.106875,0.106875 z"
           style="stroke-width:0.556634"
           id="path2078" />
        <path
           d="m 32.277041,41.729855 q -0.106875,0 -0.106875,-0.106875 l 0.02137,-14.684557 q 0,-0.0855 0.0855,-0.0855 h 2.393989 q 0.0855,0 0.0855,0.0855 l 0.02137,14.684557 q 0,0.106875 -0.0855,0.106875 z"
           style="stroke-width:0.556634"
           id="path2080" />
        <path
           d="m 38.959276,41.943604 q -1.154245,0 -2.116115,-0.577123 -0.940496,-0.598497 -1.517618,-1.560367 -0.555748,-0.983246 -0.555748,-2.158865 v -0.983246 q 0,-0.106874 0.106875,-0.106874 h 2.393989 q 0.0855,0 0.0855,0.106874 v 0.983246 q 0,0.705371 0.470248,1.218369 0.470248,0.491623 1.13287,0.491623 0.662622,0 1.13287,-0.512998 0.470248,-0.512998 0.470248,-1.196994 0,-0.790872 -1.025996,-1.367994 Q 39.1944,36.086881 38.467653,35.680758 37.740907,35.274635 37.09966,34.911261 35.92404,34.227264 35.346918,33.201269 34.79117,32.153899 34.79117,30.85003 q 0,-1.196994 0.577123,-2.13749 0.577122,-0.961871 1.517618,-1.517618 0.96187,-0.555747 2.073365,-0.555747 1.13287,0 2.073365,0.577122 0.961871,0.555747 1.517618,1.517618 0.577123,0.940496 0.577123,2.116115 v 1.752742 q 0,0.0855 -0.0855,0.0855 h -2.393989 q -0.0855,0 -0.0855,-0.0855 l -0.02137,-1.752742 q 0,-0.748121 -0.470248,-1.218369 -0.470248,-0.470248 -1.111495,-0.470248 -0.662622,0 -1.13287,0.512998 -0.470248,0.491622 -0.470248,1.175619 0,0.705372 0.299249,1.17562 0.299249,0.470247 1.09012,0.897745 0.106875,0.06413 0.406123,0.235124 0.320624,0.149625 0.683997,0.363374 0.363373,0.192374 0.641247,0.341998 0.299249,0.149624 0.363373,0.192374 1.068745,0.598497 1.688617,1.474868 0.619873,0.854996 0.619873,2.116116 0,1.218369 -0.577123,2.201614 -0.555747,0.961871 -1.517618,1.538993 -0.940495,0.555748 -2.09474,0.555748 z"
           style="stroke-width:0.556634"
           id="path2082" />
        <path
           d="m 43.397142,41.729855 q -0.0855,0 -0.0855,-0.106875 l 0.02137,-14.684557 q 0,-0.0855 0.106875,-0.0855 h 2.372614 q 0.106874,0 0.106874,0.0855 l -0.02137,5.813973 h 3.206235 v -5.813973 q 0,-0.0855 0.0855,-0.0855 h 2.372614 q 0.106874,0 0.106874,0.0855 l 0.04275,14.684557 q 0,0.106875 -0.106874,0.106875 h -2.393989 q -0.106875,0 -0.106875,-0.106875 v -6.284221 h -3.206235 v 6.284221 q 0,0.106875 -0.0855,0.106875 z"
           style="stroke-width:0.556634"
           id="path2084" />
      </g>
      <g
         aria-label="paper two"
         id="text239-4-8-8"
         style="font-size:21.3749px;font-family:staatliches;letter-spacing:-1pt;fill-rule:evenodd;stroke:#000000;stroke-width:0;stroke-opacity:0;paint-order:fill markers stroke">
        <path
           d="m 128.05671,41.956871 q -0.10687,0 -0.10687,-0.106874 l 0.0428,-14.684557 q 0,-0.0855 0.0855,-0.0855 h 4.10398 q 1.96649,0 3.09936,1.196995 1.15424,1.196994 1.15424,3.248984 0,1.517618 -0.59849,2.629113 -0.5985,1.111495 -1.56037,1.709992 -0.96187,0.598498 -2.09474,0.598498 h -1.6245 v 5.386475 q 0,0.106874 -0.10687,0.106874 z m 2.50086,-8.079712 h 1.6245 q 0.68399,0 1.17562,-0.641248 0.51299,-0.662621 0.51299,-1.709992 0,-0.833621 -0.44887,-1.367993 -0.44887,-0.534373 -1.23974,-0.534373 l -1.6245,0.02137 z"
           style="stroke-width:0.556634"
           id="path2087" />
        <path
           d="m 134.76028,41.849997 2.65049,-14.684557 q 0.0214,-0.0855 0.10687,-0.0855 h 3.09936 q 0.0855,0 0.10688,0.0855 l 2.54361,14.684557 q 0.0214,0.106874 -0.0855,0.106874 h -2.37261 q -0.0855,0 -0.10688,-0.106874 l -0.23512,-1.560368 h -2.90699 l -0.23512,1.560368 q -0.0214,0.106874 -0.10688,0.106874 h -2.37261 q -0.0855,0 -0.0855,-0.106874 z m 3.22761,-3.847483 h 2.05199 l -0.87637,-6.006347 -0.12825,-0.790871 -0.0855,0.790871 z"
           style="stroke-width:0.556634"
           id="path2089" />
        <path
           d="m 143.38761,41.956871 q -0.10688,0 -0.10688,-0.106874 l 0.0427,-14.684557 q 0,-0.0855 0.0855,-0.0855 h 4.10398 q 1.9665,0 3.09937,1.196995 1.15424,1.196994 1.15424,3.248984 0,1.517618 -0.5985,2.629113 -0.59849,1.111495 -1.56036,1.709992 -0.96188,0.598498 -2.09475,0.598498 h -1.62449 v 5.386475 q 0,0.106874 -0.10687,0.106874 z m 2.50086,-8.079712 h 1.62449 q 0.684,0 1.17562,-0.641248 0.513,-0.662621 0.513,-1.709992 0,-0.833621 -0.44887,-1.367993 -0.44887,-0.534373 -1.23975,-0.534373 l -1.62449,0.02137 z"
           style="stroke-width:0.556634"
           id="path2091" />
        <path
           d="m 151.97219,41.956871 q -0.0855,0 -0.0855,-0.106874 l 0.0214,-14.684557 q 0,-0.0855 0.0855,-0.0855 h 6.86134 q 0.0855,0 0.0855,0.106875 v 2.393988 q 0,0.0855 -0.0855,0.0855 h -4.38185 v 3.334485 h 4.38185 q 0.0855,0 0.0855,0.0855 l 0.0214,2.415364 q 0,0.0855 -0.0855,0.0855 h -4.40322 v 3.740607 h 4.40322 q 0.0855,0 0.0855,0.106875 v 2.436738 q 0,0.0855 -0.0855,0.0855 z"
           style="stroke-width:0.556634"
           id="path2093" />
        <path
           d="m 159.61628,41.956871 q -0.0855,0 -0.0855,-0.106874 l 0.0428,-14.684557 q 0,-0.0855 0.0855,-0.0855 h 4.31773 q 1.15424,0 2.11611,0.577122 0.98325,0.555748 1.56037,1.517618 0.57712,0.940496 0.57712,2.13749 0,0.790872 -0.23512,1.432119 -0.23513,0.619872 -0.55575,1.068745 -0.32062,0.427498 -0.57712,0.641247 1.15424,1.282494 1.15424,3.013861 l 0.0214,4.381855 q 0,0.106874 -0.10688,0.106874 h -2.41536 q -0.0855,0 -0.0855,-0.06412 v -4.424604 q 0,-0.769497 -0.55575,-1.325244 -0.53437,-0.577122 -1.32524,-0.577122 h -1.41074 l -0.0214,6.284221 q 0,0.106874 -0.0855,0.106874 z m 2.52224,-8.956083 h 1.83824 q 0.66262,0 1.17562,-0.491623 0.51299,-0.491623 0.51299,-1.196995 0,-0.683996 -0.51299,-1.175619 -0.49163,-0.491623 -1.17562,-0.491623 h -1.83824 z"
           style="stroke-width:0.556634"
           id="path2095" />
        <path
           d="m 172.46773,41.956871 q -0.0855,0 -0.0855,-0.106874 V 29.666303 h -2.77874 q -0.10687,0 -0.10687,-0.106874 l 0.0214,-2.393989 q 0,-0.0855 0.0855,-0.0855 h 8.12246 q 0.10688,0 0.10688,0.0855 v 2.393989 q 0,0.106874 -0.0855,0.106874 h -2.80011 l 0.0214,12.183694 q 0,0.106874 -0.0855,0.106874 z"
           style="stroke-width:0.556634"
           id="path2097" />
        <path
           d="m 179.51335,41.956871 q -0.0855,0 -0.10687,-0.106874 L 176.88424,27.16544 q -0.0214,-0.0855 0.0641,-0.0855 h 2.39399 q 0.0855,0 0.10688,0.0855 l 1.36799,9.661455 1.41074,-9.661455 q 0.0214,-0.0855 0.12825,-0.0855 h 1.92374 q 0.0855,0 0.10688,0.0855 l 1.38937,9.661455 1.38937,-9.661455 q 0.0214,-0.0855 0.10687,-0.0855 h 2.37261 q 0.10688,0 0.0855,0.0855 l -2.54361,14.684557 q -0.0214,0.04275 -0.0641,0.0855 -0.0427,0.02137 -0.0427,0.02137 h -2.58637 q -0.0641,0 -0.10687,-0.106874 l -1.09012,-7.67359 -1.09012,7.67359 q -0.0214,0.106874 -0.10688,0.106874 z"
           style="stroke-width:0.556634"
           id="path2099" />
        <path
           d="m 193.18518,42.17062 q -1.15424,0 -2.11611,-0.577122 -0.9405,-0.598498 -1.51762,-1.560368 -0.57712,-0.983245 -0.57712,-2.158865 l 0.0214,-6.775844 q 0,-1.175619 0.55575,-2.13749 0.57712,-0.96187 1.53899,-1.538993 0.96187,-0.577122 2.09474,-0.577122 1.15425,0 2.09474,0.577122 0.9405,0.577123 1.49624,1.538993 0.57713,0.961871 0.57713,2.13749 l 0.0214,6.775844 q 0,1.17562 -0.57712,2.158865 -0.55575,0.96187 -1.51762,1.560368 -0.94049,0.577122 -2.09474,0.577122 z m 0,-2.586363 q 0.64125,0 1.1115,-0.512998 0.49162,-0.534372 0.49162,-1.196994 l -0.0214,-6.775844 q 0,-0.705371 -0.44887,-1.196994 -0.44887,-0.491623 -1.13287,-0.491623 -0.66262,0 -1.13287,0.491623 -0.47025,0.470248 -0.47025,1.196994 v 6.775844 q 0,0.705372 0.47025,1.218369 0.47025,0.491623 1.13287,0.491623 z"
           style="stroke-width:0.556634"
           id="path2101" />
      </g>
    </g>
  </g>
</svg>
