<?xml version="1.0" encoding="UTF-8" standalone="no"?>
<!-- Created with Inkscape (http://www.inkscape.org/) -->

<svg
   width="196.82361mm"
   height="16.05051mm"
   viewBox="0 0 196.8236 16.050509"
   version="1.1"
   id="svg2107"
   inkscape:version="1.2.2 (b0a8486, 2022-12-01)"
   sodipodi:docname="EPaperOne.svg"
   xmlns:inkscape="http://www.inkscape.org/namespaces/inkscape"
   xmlns:sodipodi="http://sodipodi.sourceforge.net/DTD/sodipodi-0.dtd"
   xmlns="http://www.w3.org/2000/svg"
   xmlns:svg="http://www.w3.org/2000/svg">
  <sodipodi:namedview
     id="namedview2109"
     pagecolor="#ffffff"
     bordercolor="#000000"
     borderopacity="0.25"
     inkscape:showpageshadow="2"
     inkscape:pageopacity="0.0"
     inkscape:pagecheckerboard="0"
     inkscape:deskcolor="#d1d1d1"
     inkscape:document-units="mm"
     showgrid="false"
     inkscape:zoom="0.61171749"
     inkscape:cx="668.6093"
     inkscape:cy="108.71031"
     inkscape:window-width="750"
     inkscape:window-height="847"
     inkscape:window-x="720"
     inkscape:window-y="25"
     inkscape:window-maximized="0"
     inkscape:current-layer="layer1" />
  <defs
     id="defs2104" />
  <g
     inkscape:label="Layer 1"
     inkscape:groupmode="layer"
     id="layer1"
     transform="translate(121.27082,-14.223238)">
    <g
       id="g2032"
       transform="translate(-121.44707,-11.977256)">
      <g
         aria-label="English"
         id="text239-4"
         style="font-size:21.3749px;font-family:staatliches;letter-spacing:-1pt;fill-rule:evenodd;stroke:#000000;stroke-width:0;stroke-opacity:0;paint-order:fill markers stroke">
        <path
           d="m 0.54006818,41.758938 q -0.0854996,0 -0.0854996,-0.106875 l 0.0213749,-14.684557 q 0,-0.0855 0.0854996,-0.0855 H 7.4227862 q 0.0855,0 0.0855,0.106874 v 2.393989 q 0,0.0855 -0.0855,0.0855 H 3.0409316 v 3.334484 h 4.3818546 q 0.0855,0 0.0855,0.0855 l 0.021375,2.415364 q 0,0.0855 -0.0855,0.0855 H 3.0409316 v 3.740608 h 4.4032295 q 0.0855,0 0.0855,0.106875 v 2.436738 q 0,0.0855 -0.0855,0.0855 z"
           style="stroke-width:0.556634"
           id="path2034" />
        <path
           d="m 8.2910281,41.758938 q -0.1709992,0 -0.1709992,-0.149624 L 8.098654,27.053006 q 0,-0.170999 0.1709992,-0.170999 h 1.9237408 l 3.612358,8.421711 -0.106874,-8.250712 q 0,-0.170999 0.192374,-0.170999 h 2.116115 q 0.12825,0 0.12825,0.170999 l 0.02137,14.577682 q 0,0.12825 -0.106875,0.12825 h -1.880991 l -3.697858,-7.865964 0.149624,7.694965 q 0,0.170999 -0.192374,0.170999 z"
           style="stroke-width:0.556634"
           id="path2036" />
        <path
           d="m 20.594855,41.972687 q -1.154245,0 -2.09474,-0.577122 -0.940496,-0.577123 -1.517618,-1.538993 -0.555748,-0.983246 -0.555748,-2.18024 v -6.775844 q 0,-1.154244 0.555748,-2.116115 0.577122,-0.983245 1.517618,-1.560368 0.96187,-0.577122 2.09474,-0.577122 1.17562,0 2.116115,0.577122 0.961871,0.555748 1.517618,1.517618 0.555748,0.961871 0.555748,2.158865 v 0.983246 q 0,0.0855 -0.106875,0.0855 h -2.393989 q -0.0855,0 -0.0855,-0.0855 v -0.812247 q 0,-0.812246 -0.470248,-1.346618 -0.448873,-0.534373 -1.13287,-0.534373 -0.619872,0 -1.111495,0.512998 -0.470248,0.512997 -0.470248,1.196994 v 6.775844 q 0,0.705372 0.470248,1.218369 0.470248,0.491623 1.111495,0.491623 0.683997,0 1.13287,-0.491623 0.470248,-0.491623 0.470248,-1.218369 v -1.04737 H 20.70173 q -0.106875,0 -0.106875,-0.106875 v -2.393989 q 0,-0.106874 0.106875,-0.106874 h 3.997106 q 0.0855,0 0.0855,0.106874 v 3.548234 q 0,1.196994 -0.577123,2.18024 -0.555747,0.96187 -1.496243,1.538993 -0.940495,0.577122 -2.116115,0.577122 z"
           style="stroke-width:0.556634"
           id="path2038" />
        <path
           d="m 25.054095,41.758938 q -0.0855,0 -0.0855,-0.106875 l 0.02137,-14.663182 q 0,-0.106874 0.106875,-0.106874 h 2.372614 q 0.106874,0 0.106874,0.106874 l -0.02138,12.140944 h 4.40323 q 0.106874,0 0.106874,0.106875 v 2.415363 q 0,0.106875 -0.106874,0.106875 z"
           style="stroke-width:0.556634"
           id="path2040" />
        <path
           d="m 32.227958,41.758938 q -0.106874,0 -0.106874,-0.106875 l 0.02137,-14.684557 q 0,-0.0855 0.0855,-0.0855 h 2.393989 q 0.0855,0 0.0855,0.0855 l 0.02137,14.684557 q 0,0.106875 -0.0855,0.106875 z"
           style="stroke-width:0.556634"
           id="path2042" />
        <path
           d="m 38.910193,41.972687 q -1.154244,0 -2.116115,-0.577122 -0.940495,-0.598498 -1.517618,-1.560368 -0.555747,-0.983246 -0.555747,-2.158865 v -0.983246 q 0,-0.106874 0.106874,-0.106874 h 2.393989 q 0.0855,0 0.0855,0.106874 v 0.983246 q 0,0.705372 0.470248,1.218369 0.470248,0.491623 1.132869,0.491623 0.662622,0 1.13287,-0.512998 0.470248,-0.512997 0.470248,-1.196994 0,-0.790872 -1.025995,-1.367994 -0.341999,-0.192374 -1.068745,-0.598497 -0.726747,-0.406123 -1.367994,-0.769497 -1.175619,-0.683996 -1.752742,-1.709992 -0.555747,-1.04737 -0.555747,-2.351239 0,-1.196994 0.577122,-2.13749 0.577122,-0.96187 1.517618,-1.517618 0.961871,-0.555747 2.073365,-0.555747 1.13287,0 2.073366,0.577122 0.96187,0.555748 1.517618,1.517618 0.577122,0.940496 0.577122,2.116115 v 1.752742 q 0,0.0855 -0.0855,0.0855 H 40.59881 q -0.0855,0 -0.0855,-0.0855 l -0.02137,-1.752742 q 0,-0.748121 -0.470248,-1.218369 -0.470247,-0.470248 -1.111495,-0.470248 -0.662621,0 -1.132869,0.512998 -0.470248,0.491622 -0.470248,1.175619 0,0.705372 0.299249,1.17562 0.299248,0.470248 1.090119,0.897746 0.106875,0.06412 0.406124,0.235124 0.320623,0.149624 0.683996,0.363373 0.363374,0.192374 0.641247,0.341998 0.299249,0.149625 0.363374,0.192374 1.068745,0.598498 1.688617,1.474869 0.619872,0.854996 0.619872,2.116115 0,1.218369 -0.577122,2.201615 -0.555748,0.96187 -1.517618,1.538992 -0.940496,0.555748 -2.094741,0.555748 z"
           style="stroke-width:0.556634"
           id="path2044" />
        <path
           d="m 43.348059,41.758938 q -0.0855,0 -0.0855,-0.106875 l 0.02137,-14.684557 q 0,-0.0855 0.106874,-0.0855 h 2.372614 q 0.106874,0 0.106874,0.0855 l -0.02137,5.813973 h 3.206235 v -5.813973 q 0,-0.0855 0.0855,-0.0855 h 2.372614 q 0.106875,0 0.106875,0.0855 l 0.04275,14.684557 q 0,0.106875 -0.106875,0.106875 h -2.393989 q -0.106874,0 -0.106874,-0.106875 v -6.284221 h -3.206235 v 6.284221 q 0,0.106875 -0.0855,0.106875 z"
           style="stroke-width:0.556634"
           id="path2046" />
      </g>
      <g
         aria-label="paper one"
         id="text239-4-8"
         style="font-size:21.3749px;font-family:staatliches;letter-spacing:-1pt;fill-rule:evenodd;stroke:#000000;stroke-width:0;stroke-opacity:0;paint-order:fill markers stroke">
        <path
           d="m 130.35332,41.590866 q -0.10687,0 -0.10687,-0.106874 l 0.0427,-14.684557 q 0,-0.0855 0.0855,-0.0855 h 4.10399 q 1.96649,0 3.09936,1.196995 1.15424,1.196994 1.15424,3.248984 0,1.517618 -0.5985,2.629113 -0.59849,1.111495 -1.56036,1.709992 -0.96187,0.598498 -2.09474,0.598498 h -1.6245 v 5.386475 q 0,0.106874 -0.10687,0.106874 z m 2.50086,-8.079712 h 1.6245 q 0.68399,0 1.17561,-0.641247 0.513,-0.662622 0.513,-1.709993 0,-0.833621 -0.44887,-1.367993 -0.44887,-0.534373 -1.23974,-0.534373 l -1.6245,0.02137 z"
           style="stroke-width:0.556634"
           id="path2049" />
        <path
           d="m 137.05689,41.483992 2.65048,-14.684557 q 0.0214,-0.0855 0.10688,-0.0855 h 3.09936 q 0.0855,0 0.10687,0.0855 l 2.54362,14.684557 q 0.0214,0.106874 -0.0855,0.106874 h -2.37262 q -0.0855,0 -0.10687,-0.106874 l -0.23513,-1.560368 H 139.857 l -0.23513,1.560368 q -0.0214,0.106874 -0.10687,0.106874 h -2.37261 q -0.0855,0 -0.0855,-0.106874 z m 3.22761,-3.847483 h 2.05199 l -0.87637,-6.006347 -0.12825,-0.790871 -0.0855,0.790871 z"
           style="stroke-width:0.556634"
           id="path2051" />
        <path
           d="m 145.68422,41.590866 q -0.10688,0 -0.10688,-0.106874 l 0.0428,-14.684557 q 0,-0.0855 0.0855,-0.0855 h 4.10398 q 1.96649,0 3.09936,1.196995 1.15425,1.196994 1.15425,3.248984 0,1.517618 -0.5985,2.629113 -0.5985,1.111495 -1.56037,1.709992 -0.96187,0.598498 -2.09474,0.598498 h -1.62449 v 5.386475 q 0,0.106874 -0.10687,0.106874 z m 2.50086,-8.079712 h 1.62449 q 0.684,0 1.17562,-0.641247 0.513,-0.662622 0.513,-1.709993 0,-0.833621 -0.44887,-1.367993 -0.44888,-0.534373 -1.23975,-0.534373 l -1.62449,0.02137 z"
           style="stroke-width:0.556634"
           id="path2053" />
        <path
           d="m 154.2688,41.590866 q -0.0855,0 -0.0855,-0.106874 l 0.0214,-14.684557 q 0,-0.0855 0.0855,-0.0855 h 6.86135 q 0.0855,0 0.0855,0.106875 v 2.393989 q 0,0.0855 -0.0855,0.0855 h -4.38186 v 3.334485 h 4.38186 q 0.0855,0 0.0855,0.0855 l 0.0214,2.415364 q 0,0.0855 -0.0855,0.0855 h -4.40323 v 3.740607 h 4.40323 q 0.0855,0 0.0855,0.106875 v 2.436738 q 0,0.0855 -0.0855,0.0855 z"
           style="stroke-width:0.556634"
           id="path2055" />
        <path
           d="m 161.91288,41.590866 q -0.0855,0 -0.0855,-0.106874 l 0.0427,-14.684557 q 0,-0.0855 0.0855,-0.0855 h 4.31773 q 1.15425,0 2.11612,0.577122 0.98325,0.555748 1.56037,1.517618 0.57712,0.940496 0.57712,2.13749 0,0.790872 -0.23512,1.432119 -0.23513,0.619872 -0.55575,1.068745 -0.32062,0.427498 -0.57712,0.641247 1.15424,1.282494 1.15424,3.013861 l 0.0214,4.381855 q 0,0.106874 -0.10688,0.106874 h -2.41536 q -0.0855,0 -0.0855,-0.06412 v -4.424604 q 0,-0.769497 -0.55575,-1.325244 -0.53437,-0.577122 -1.32524,-0.577122 h -1.41075 l -0.0214,6.284221 q 0,0.106874 -0.0855,0.106874 z m 2.52224,-8.956083 h 1.83824 q 0.66263,0 1.17562,-0.491623 0.513,-0.491623 0.513,-1.196995 0,-0.683996 -0.513,-1.175619 -0.49162,-0.491623 -1.17562,-0.491623 h -1.83824 z"
           style="stroke-width:0.556634"
           id="path2057" />
        <path
           d="m 176.5812,41.804615 q -1.15424,0 -2.11611,-0.577122 -0.9405,-0.598497 -1.51762,-1.560368 -0.57712,-0.983245 -0.57712,-2.158865 l 0.0214,-6.775844 q 0,-1.175619 0.55575,-2.13749 0.57712,-0.96187 1.53899,-1.538992 0.96187,-0.577123 2.09474,-0.577123 1.15425,0 2.09474,0.577123 0.9405,0.577122 1.49625,1.538992 0.57712,0.961871 0.57712,2.13749 l 0.0214,6.775844 q 0,1.17562 -0.57712,2.158865 -0.55575,0.961871 -1.51762,1.560368 -0.94049,0.577122 -2.09474,0.577122 z m 0,-2.586363 q 0.64125,0 1.1115,-0.512998 0.49162,-0.534372 0.49162,-1.196994 l -0.0214,-6.775844 q 0,-0.705371 -0.44888,-1.196994 -0.44887,-0.491623 -1.13287,-0.491623 -0.66262,0 -1.13287,0.491623 -0.47024,0.470248 -0.47024,1.196994 v 6.775844 q 0,0.705372 0.47024,1.218369 0.47025,0.491623 1.13287,0.491623 z"
           style="stroke-width:0.556634"
           id="path2059" />
        <path
           d="m 181.25419,41.590866 q -0.171,0 -0.171,-0.149624 l -0.0214,-14.556308 q 0,-0.170999 0.171,-0.170999 h 1.92374 l 3.61236,8.421711 -0.10688,-8.250712 q 0,-0.170999 0.19238,-0.170999 h 2.11611 q 0.12825,0 0.12825,0.170999 l 0.0214,14.577683 q 0,0.128249 -0.10688,0.128249 h -1.88099 l -3.69786,-7.865963 0.14963,7.694964 q 0,0.170999 -0.19238,0.170999 z"
           style="stroke-width:0.556634"
           id="path2061" />
        <path
           d="m 189.73191,41.590866 q -0.0855,0 -0.0855,-0.106874 l 0.0214,-14.684557 q 0,-0.0855 0.0855,-0.0855 h 6.86134 q 0.0855,0 0.0855,0.106875 v 2.393989 q 0,0.0855 -0.0855,0.0855 h -4.38185 v 3.334485 h 4.38185 q 0.0855,0 0.0855,0.0855 l 0.0214,2.415364 q 0,0.0855 -0.0855,0.0855 h -4.40322 v 3.740607 h 4.40322 q 0.0855,0 0.0855,0.106875 v 2.436738 q 0,0.0855 -0.0855,0.0855 z"
           style="stroke-width:0.556634"
           id="path2063" />
      </g>
    </g>
  </g>
</svg>
