<?xml version="1.0" encoding="UTF-8" standalone="no"?>
<!-- Created with Inkscape (http://www.inkscape.org/) -->

<svg
   width="109.76527mm"
   height="12.520678mm"
   viewBox="0 0 109.76527 12.520677"
   version="1.1"
   id="svg2107"
   inkscape:version="1.2.2 (b0a8486, 2022-12-01)"
   sodipodi:docname="May23rd.svg"
   xmlns:inkscape="http://www.inkscape.org/namespaces/inkscape"
   xmlns:sodipodi="http://sodipodi.sourceforge.net/DTD/sodipodi-0.dtd"
   xmlns="http://www.w3.org/2000/svg"
   xmlns:svg="http://www.w3.org/2000/svg">
  <sodipodi:namedview
     id="namedview2109"
     pagecolor="#ffffff"
     bordercolor="#000000"
     borderopacity="0.25"
     inkscape:showpageshadow="2"
     inkscape:pageopacity="0.0"
     inkscape:pagecheckerboard="0"
     inkscape:deskcolor="#d1d1d1"
     inkscape:document-units="mm"
     showgrid="false"
     inkscape:zoom="0.61171749"
     inkscape:cx="574.61166"
     inkscape:cy="110.34505"
     inkscape:window-width="747"
     inkscape:window-height="847"
     inkscape:window-x="693"
     inkscape:window-y="25"
     inkscape:window-maximized="0"
     inkscape:current-layer="layer1" />
  <defs
     id="defs2104" />
  <g
     inkscape:label="Layer 1"
     inkscape:groupmode="layer"
     id="layer1"
     transform="translate(96.752085,-12.970364)">
    <g
       id="g1576"
       transform="translate(-185.1748,-55.15828)">
      <g
         aria-label="rd"
         id="text239-4-1-7"
         style="font-size:7.32597px;font-family:staatliches;letter-spacing:-0.342737pt;fill-rule:evenodd;stroke:#000000;stroke-width:0;stroke-opacity:0;paint-order:fill markers stroke">
        <path
           d="m 169.69591,73.664299 q -0.0293,0 -0.0293,-0.03663 l 0.0147,-5.032941 q 0,-0.0293 0.0293,-0.0293 h 1.47985 q 0.3956,0 0.72527,0.197801 0.33699,0.190475 0.53479,0.520144 0.1978,0.322343 0.1978,0.732597 0,0.271061 -0.0806,0.49084 -0.0806,0.212453 -0.19048,0.366298 -0.10989,0.14652 -0.1978,0.219779 0.3956,0.439559 0.3956,1.032962 l 0.007,1.501824 q 0,0.03663 -0.0366,0.03663 h -0.82783 q -0.0293,0 -0.0293,-0.02198 v -1.516476 q 0,-0.263735 -0.19047,-0.45421 -0.18315,-0.197801 -0.45421,-0.197801 h -0.48352 l -0.007,2.153835 q 0,0.03663 -0.0293,0.03663 z m 0.86446,-3.069581 h 0.63004 q 0.2271,0 0.40292,-0.168498 0.17583,-0.168497 0.17583,-0.410254 0,-0.234431 -0.17583,-0.402928 -0.16849,-0.168498 -0.40292,-0.168498 h -0.63004 z"
           style="stroke-width:0.19078"
           id="path168" />
        <path
           d="m 172.77736,73.664299 q -0.0366,0 -0.0366,-0.03663 l 0.0146,-5.032941 q 0,-0.0293 0.0293,-0.0293 l 1.36996,-0.0073 q 0.40293,-0.0073 0.7326,0.190475 0.33699,0.197801 0.53479,0.534796 0.1978,0.329669 0.1978,0.732597 v 2.102553 q 0,0.424907 -0.20512,0.776553 -0.20513,0.344321 -0.54945,0.549448 -0.34432,0.205127 -0.77655,0.212453 z m 0.85714,-0.901094 h 0.45421 q 0.27106,0 0.45421,-0.190476 0.19047,-0.190475 0.19047,-0.45421 V 70.00864 q 0,-0.234431 -0.17582,-0.402928 -0.1685,-0.175824 -0.40293,-0.168498 l -0.51282,0.0073 z"
           style="stroke-width:0.19078"
           id="path170" />
      </g>
      <path
         id="text239-4-8-5"
         style="font-size:15.0308px;font-family:staatliches;letter-spacing:-0.703199pt;word-spacing:1.66858;fill:#000000;fill-rule:evenodd;stroke:#000000;stroke-width:0;stroke-opacity:0;paint-order:fill markers stroke"
         d="m 160.65655,68.128645 c -0.51105,0 -0.9924,0.135623 -1.44332,0.406177 -0.4409,0.270554 -0.80153,0.636147 -1.08211,1.097091 -0.27055,0.460944 -0.40566,0.97209 -0.40566,1.53324 v 0.736389 c 0,0.0501 0.0199,0.07545 0.06,0.07545 h 1.68362 c 0.0501,0 0.0749,-0.02535 0.0749,-0.07545 v -0.736389 c 0,-0.360739 0.10531,-0.656296 0.31574,-0.886768 0.22045,-0.240493 0.48622,-0.360702 0.79685,-0.360702 0.32066,0 0.5859,0.125175 0.79634,0.375688 0.21043,0.240493 0.31574,0.505739 0.31574,0.796334 0,0.110226 -0.0248,0.240883 -0.0749,0.391191 -0.0401,0.140287 -0.0952,0.25553 -0.16537,0.345715 l -3.71295,5.095296 c -0.02,0.02004 -0.03,0.0399 -0.03,0.05994 v 1.698604 c 0,0.0501 0.0253,0.07493 0.0754,0.07493 h 5.60637 c 0.0401,0 0.0599,-0.02483 0.0599,-0.07493 v -1.698604 c 0,-0.04008 -0.0199,-0.05994 -0.0599,-0.05994 h -3.38222 l 2.85616,-3.923275 c 0.20041,-0.260533 0.35589,-0.561056 0.46612,-0.901753 0.0249,-0.07047 0.0454,-0.14028 0.0651,-0.210323 h -0.0109 c -0.0401,0 -0.0605,-0.02483 -0.0605,-0.07493 v -0.796851 c 0,-0.242559 0.0282,-0.47268 0.0806,-0.691947 -0.0676,-0.238687 -0.1672,-0.469187 -0.30024,-0.690914 -0.26053,-0.450924 -0.61123,-0.811551 -1.05213,-1.082105 -0.4409,-0.280574 -0.93167,-0.421163 -1.47278,-0.421163 z m 2.82515,2.194182 c 0.0699,0.246727 0.10594,0.502029 0.10594,0.766878 0,0.262278 -0.0396,0.528269 -0.11524,0.796851 h 1.67225 c 0.0401,0 0.0605,-0.02483 0.0605,-0.07493 v -0.72192 c 0,-0.320657 0.10531,-0.590869 0.31574,-0.81132 0.22046,-0.230472 0.4857,-0.345715 0.79634,-0.345715 0.32065,0 0.58642,0.115243 0.79685,0.345715 0.22045,0.220451 0.33073,0.490663 0.33073,0.81132 v 0.21084 c 0,0.340698 -0.10531,0.615875 -0.31575,0.826306 -0.21043,0.210431 -0.45084,0.315743 -0.7214,0.315743 h -0.58653 c -0.0401,0 -0.0599,0.02038 -0.0599,0.06046 l -0.015,1.683102 c 0,0.0501 0.0248,0.07545 0.0749,0.07545 h 0.58653 c 0.30062,0 0.546,0.125175 0.73639,0.375688 0.20041,0.250513 0.30076,0.531173 0.30076,0.841809 v 0.40566 c 0,0.310636 -0.10035,0.591296 -0.30076,0.841809 -0.20041,0.240493 -0.4761,0.360702 -0.82682,0.360702 -0.32066,0 -0.5859,-0.115244 -0.79634,-0.345716 -0.21043,-0.240492 -0.31574,-0.526118 -0.31574,-0.856795 V 75.20832 c 0,-0.0501 -0.0253,-0.07493 -0.0754,-0.07493 h -1.6831 c -0.0401,0 -0.0605,0.02483 -0.0605,0.07493 v 0.676444 c 0,0.551129 0.13066,1.05731 0.39119,1.518254 0.27056,0.460944 0.62622,0.831502 1.06712,1.112077 0.45092,0.270554 0.94169,0.40566 1.47278,0.40566 0.54111,0 1.03239,-0.135106 1.47329,-0.40566 0.45093,-0.270555 0.80659,-0.636147 1.06712,-1.097091 0.27056,-0.460944 0.40566,-0.972091 0.40566,-1.53324 v -0.451135 c 0,-0.38078 -0.075,-0.746372 -0.22531,-1.097091 -0.15031,-0.360739 -0.35596,-0.691572 -0.6165,-0.992187 0.26054,-0.290595 0.46123,-0.596083 0.60152,-0.91674 0.1503,-0.320657 0.22531,-0.701146 0.22531,-1.142049 v -0.240813 c 0,-0.531087 -0.13014,-1.016889 -0.39068,-1.457792 -0.26053,-0.440903 -0.61619,-0.791598 -1.06712,-1.052132 -0.4409,-0.270554 -0.93218,-0.406177 -1.47329,-0.406177 -0.50103,0 -0.9769,0.130657 -1.42782,0.391191 -0.4409,0.250513 -0.80153,0.591277 -1.08211,1.02216 -0.15148,0.241245 -0.25889,0.501892 -0.32556,0.780831 z m 19.55178,-2.194182 c -0.53109,0 -1.02185,0.135623 -1.47278,0.406177 -0.4409,0.270554 -0.79656,0.631181 -1.06712,1.082105 -0.26053,0.450923 -0.39119,0.952138 -0.39119,1.503267 v 0.931726 c 0,0.551129 0.13066,1.05731 0.39119,1.518254 0.27056,0.450923 0.62622,0.81155 1.06712,1.082104 0.44091,0.270554 0.93167,0.40566 1.47278,0.40566 0.3908,0 0.76684,-0.075 1.12758,-0.225309 v 1.037146 c 0,0.330677 -0.11028,0.616303 -0.33073,0.856795 -0.22045,0.230472 -0.48621,0.345716 -0.79685,0.345716 -0.31064,0 -0.57588,-0.115244 -0.79633,-0.345716 -0.22045,-0.240492 -0.33073,-0.526118 -0.33073,-0.856795 v -0.300757 c 0,-0.04008 -0.0204,-0.05994 -0.0605,-0.05994 h -1.68311 c -0.0501,0 -0.0754,0.01986 -0.0754,0.05994 v 0.300757 c 0,0.551129 0.13014,1.057309 0.39067,1.518254 0.27055,0.460944 0.6317,0.831502 1.08262,1.112076 0.45093,0.270554 0.94169,0.40566 1.47278,0.40566 0.54111,0 1.03239,-0.135106 1.4733,-0.40566 0.45092,-0.280574 0.81155,-0.651132 1.0821,-1.112076 0.0171,-0.02921 0.032,-0.05931 0.0481,-0.08888 l 0.35553,-1.968872 -0.0129,-3.278353 v -0.931726 c 0,-0.541108 -0.1351,-1.037358 -0.40566,-1.488281 -0.27055,-0.460944 -0.63118,-0.826537 -1.0821,-1.097091 -0.4409,-0.270554 -0.92722,-0.406177 -1.45831,-0.406177 z m 2.95899,7.201628 0.002,0.539502 c 0,0.516206 -0.12025,0.992282 -0.3576,1.42937 l -0.24908,1.381311 c 0,0.0501 0.0199,0.07493 0.0599,0.07493 h 1.66864 c 0.0401,0 0.0649,-0.02483 0.0749,-0.07493 l 0.16536,-1.097091 h 2.04432 l 0.16536,1.097091 c 0.01,0.0501 0.0349,0.07493 0.0749,0.07493 h 1.66863 c 0.0501,0 0.07,-0.02483 0.0599,-0.07493 l -1.7883,-10.325985 c -0.01,-0.04008 -0.0354,-0.06046 -0.0754,-0.06046 h -2.17919 c -0.0401,0 -0.0654,0.02038 -0.0755,0.06046 z m -70.91298,-7.186125 c -0.52107,0 -1.00687,0.130141 -1.45779,0.390674 -0.44091,0.260534 -0.79657,0.616195 -1.06712,1.067118 -0.14271,0.232554 -0.24676,0.482269 -0.31419,0.748275 0.0921,0.286465 0.13952,0.592444 0.13952,0.919841 0,0.293153 -0.036,0.563569 -0.1049,0.81287 0.064,0.236326 0.15126,0.461836 0.26458,0.675411 0.27056,0.480985 0.68136,0.881854 1.23248,1.202511 0.30062,0.170348 0.62101,0.350662 0.9617,0.541052 0.3407,0.19039 0.59157,0.330461 0.7519,0.420646 0.48098,0.270554 0.7214,0.591456 0.7214,0.962215 0,0.320657 -0.11028,0.601317 -0.33073,0.841809 -0.22045,0.240493 -0.48622,0.360702 -0.79685,0.360702 -0.31064,0 -0.57588,-0.115244 -0.79634,-0.345716 -0.22045,-0.240492 -0.33072,-0.526118 -0.33072,-0.856795 V 75.19333 c 0,-0.0501 -0.0199,-0.07493 -0.06,-0.07493 h -1.68362 c -0.007,0 -0.009,0.0043 -0.015,0.0052 0.0219,0.154726 0.0357,0.312187 0.0357,0.475423 l 0.005,1.088306 c 0.0651,0.24939 0.16136,0.488284 0.28991,0.715719 0.27055,0.450923 0.62621,0.816516 1.06711,1.09709 0.45093,0.270554 0.94666,0.40566 1.48777,0.40566 0.54111,0 1.03239,-0.13014 1.47329,-0.390673 0.45093,-0.270555 0.80659,-0.631181 1.06712,-1.082105 0.27056,-0.460944 0.40566,-0.977056 0.40566,-1.548226 0,-0.591211 -0.14504,-1.08746 -0.43563,-1.488281 -0.2906,-0.410842 -0.6865,-0.756571 -1.18752,-1.037146 -0.0301,-0.02004 -0.115,-0.06473 -0.25529,-0.134876 -0.13026,-0.07014 -0.28078,-0.150627 -0.45113,-0.240812 -0.17035,-0.100205 -0.3308,-0.185138 -0.48111,-0.255281 -0.14029,-0.08016 -0.23515,-0.135303 -0.28525,-0.165365 -0.37076,-0.20041 -0.62659,-0.411034 -0.76688,-0.631486 -0.14029,-0.220451 -0.21032,-0.495629 -0.21032,-0.826306 0,-0.320657 0.11027,-0.596351 0.33072,-0.826823 0.22046,-0.240493 0.4857,-0.360702 0.79634,-0.360702 0.30061,0 0.56141,0.110278 0.78186,0.33073 0.22045,0.220451 0.33073,0.506077 0.33073,0.856795 l 0.015,1.232483 c 0,0.04008 0.0199,0.05994 0.0599,0.05994 h 1.68362 c 0.0401,0 0.06,-0.01986 0.06,-0.05994 v -1.232483 c 0,-0.551129 -0.13511,-1.047378 -0.40566,-1.488281 -0.26054,-0.450924 -0.6162,-0.806585 -1.06712,-1.067119 -0.44091,-0.270554 -0.92722,-0.40566 -1.45831,-0.40566 z m -2.84479,8.543148 c -0.0669,-0.256052 -0.10128,-0.523338 -0.10128,-0.802535 V 75.19333 c 0,-0.04341 0.0229,-0.06396 0.0605,-0.06976 -0.0869,-0.614616 -0.3439,-1.163512 -0.77618,-1.643827 0.12024,-0.100205 0.25587,-0.250208 0.40617,-0.450619 0.15031,-0.210431 0.28045,-0.461296 0.39068,-0.751892 0.0231,-0.06292 0.0422,-0.128306 0.0605,-0.194303 -0.0832,-0.306984 -0.12609,-0.632345 -0.12609,-0.977718 0,-0.265172 0.031,-0.516672 0.0915,-0.754993 -0.0658,-0.204528 -0.15344,-0.399247 -0.26614,-0.58291 -0.27055,-0.450923 -0.63666,-0.806585 -1.09761,-1.067118 -0.45092,-0.270554 -0.94665,-0.406177 -1.48776,-0.406177 h -3.03651 c -0.0401,0 -0.0599,0.02038 -0.0599,0.06046 l -0.03,10.325985 c 0,0.0501 0.0199,0.07493 0.0599,0.07493 h 1.6986 c 0.0401,0 0.06,-0.02483 0.06,-0.07493 l 0.015,-4.418852 h 0.99218 c 0.37076,0 0.68122,0.135106 0.93173,0.40566 0.26053,0.260534 0.39119,0.570988 0.39119,0.931726 v 3.111438 c 0,0.03006 0.0199,0.04496 0.0599,0.04496 h 1.69861 c 0.0501,0 0.0749,-0.02483 0.0749,-0.07493 z m 8.8067,-8.408272 -2.81068,0.01499 c -0.0401,0 -0.0605,0.02038 -0.0605,0.06046 l -0.03,10.325985 c 0,0.0501 0.0248,0.07493 0.0749,0.07493 l 2.6908,-0.01499 c 0.59121,-0.01002 1.12222,-0.155058 1.59318,-0.435633 0.45682,-0.27215 0.8225,-0.635992 1.10019,-1.087272 l 0.44804,-2.482019 v -3.465421 c 0,-0.551129 -0.13511,-1.051827 -0.40566,-1.502751 -0.27056,-0.460944 -0.63667,-0.826536 -1.09761,-1.097091 -0.45092,-0.270554 -0.95162,-0.401211 -1.50275,-0.39119 z m 3.00602,6.456453 v 0.848527 c 0,0.581191 -0.14007,1.1122 -0.42065,1.593185 -0.008,0.01414 -0.0188,0.02634 -0.0274,0.04031 l -0.26406,1.46296 c 0,0.0501 0.0199,0.07493 0.0599,0.07493 h 1.66863 c 0.0401,0 0.0649,-0.02483 0.0749,-0.07493 l 0.16537,-1.097091 h 2.04432 l 0.16536,1.097091 c 0.01,0.0501 0.0349,0.07493 0.0749,0.07493 h 1.66863 c 0.0501,0 0.07,-0.02483 0.06,-0.07493 L 127.5288,68.354474 c -0.01,-0.04008 -0.0354,-0.06046 -0.0754,-0.06046 h -2.17919 c -0.0401,0 -0.0649,0.02038 -0.0749,0.06046 z M 88.498166,68.29401 c -0.04008,0 -0.06046,0.02038 -0.06046,0.06046 l -0.01499,1.683102 c 0,0.0501 0.02535,0.07545 0.07545,0.07545 h 1.953886 v 8.567436 c 0,0.0501 0.01986,0.07493 0.05994,0.07493 h 1.698604 c 0.04008,0 0.05994,-0.02483 0.05994,-0.07493 L 92.25556,70.11302 h 1.840714 l 0.0026,-1.758549 c 0,-0.04008 0.02483,-0.06046 0.07493,-0.06046 z m 5.598108,1.81901 -0.0124,8.567436 c 0,0.0501 0.01986,0.07493 0.05994,0.07493 h 1.698604 c 0.04008,0 0.05994,-0.02483 0.05994,-0.07493 V 74.261604 H 98.157 v 4.418852 c 0,0.0501 0.02535,0.07493 0.07545,0.07493 h 1.683101 c 0.0501,0 0.07545,-0.02483 0.07545,-0.07493 l -0.02997,-10.325985 c 0,-0.04008 -0.02535,-0.06046 -0.07545,-0.06046 H 98.21747 c -0.04008,0 -0.06046,0.02038 -0.06046,0.06046 v 4.088123 h -2.254642 l 0.01499,-4.088123 c 0,-0.04008 -0.02483,-0.06046 -0.07493,-0.06046 H 94.20997 c 0.0501,0 0.07493,0.02038 0.07493,0.06046 v 1.683102 c 0,0.0501 -0.01986,0.07545 -0.05994,0.07545 z m 6.099366,-1.81901 c -0.0401,0 -0.0599,0.02038 -0.0599,0.06046 l -0.0305,7.515304 c 0,0.551129 0.13066,1.057309 0.39119,1.518254 0.27056,0.460944 0.63118,0.831502 1.08211,1.112076 0.45092,0.270554 0.94169,0.40566 1.47277,0.40566 0.55113,0 1.04738,-0.135106 1.48829,-0.40566 0.45092,-0.270554 0.80658,-0.636146 1.06711,-1.09709 0.27056,-0.460944 0.40566,-0.972091 0.40566,-1.53324 l -0.03,-7.515304 c 0,-0.04008 -0.0199,-0.06046 -0.0599,-0.06046 h -1.68362 c -0.0401,0 -0.06,0.02038 -0.06,0.06046 v 7.515304 c 0,0.340698 -0.11027,0.631289 -0.33073,0.871781 -0.21043,0.230472 -0.47619,0.345716 -0.79685,0.345716 -0.31063,0 -0.57588,-0.115244 -0.79633,-0.345716 -0.21043,-0.240492 -0.31574,-0.531083 -0.31574,-0.871781 V 68.35447 c 0,-0.04008 -0.0199,-0.06046 -0.06,-0.06046 z m 27.86859,0 c -0.0401,0 -0.055,0.02038 -0.045,0.06046 l 2.01383,6.072498 -0.015,4.268473 c 0,0.04008 0.0149,0.05994 0.045,0.05994 h 1.72858 c 0.0401,0 0.0605,-0.01986 0.0605,-0.05994 l -0.015,-4.328934 2.02882,-6.012037 c 0.01,-0.04008 -0.005,-0.06046 -0.045,-0.06046 h -1.68362 c -0.0401,0 -0.0649,0.02038 -0.0749,0.06046 l -1.12758,4.043164 -1.11208,-4.043164 c -0.01,-0.04008 -0.0398,-0.06046 -0.0899,-0.06046 z m 10.0986,0 c -0.0401,0 -0.0599,0.02038 -0.0599,0.06046 l -0.03,10.325985 c 0,0.0501 0.0199,0.07493 0.0599,0.07493 h 1.69861 c 0.0401,0 0.0599,-0.02483 0.0599,-0.07493 l 0.015,-7.665682 1.56321,2.284615 1.5782,-2.284615 0.015,7.665682 c 0,0.0501 0.0204,0.07493 0.0605,0.07493 h 1.63246 c -0.0401,0 -0.0599,-0.02483 -0.0599,-0.07493 l 0.18293,-1.014408 -0.0269,-9.311577 c 0,-0.04008 -0.0204,-0.06046 -0.0605,-0.06046 h -1.84847 c -0.0401,0 -0.0754,0.02038 -0.10542,0.06046 l -1.36787,1.983859 -1.36788,-1.983859 c -0.0301,-0.04008 -0.0648,-0.06046 -0.1049,-0.06046 z m 6.71587,9.372038 0.003,1.014408 c 0,0.0501 -0.0204,0.07493 -0.0605,0.07493 h 1.60301 c 0.0401,0 0.0649,-0.02483 0.0749,-0.07493 l 0.16536,-1.097091 h 2.04432 l 0.16537,1.097091 c 0.01,0.0501 0.0348,0.07493 0.0749,0.07493 h 1.66863 c 0.0501,0 0.07,-0.02483 0.0599,-0.07493 l -1.78852,-10.325985 c -0.01,-0.04008 -0.0354,-0.06046 -0.0754,-0.06046 h -2.17919 c -0.0401,0 -0.0654,0.02038 -0.0754,0.06046 z m 4.54598,-9.372038 c -0.0401,0 -0.055,0.02038 -0.045,0.06046 l 2.01383,6.072498 -0.015,4.268473 c 0,0.04008 0.0149,0.05994 0.045,0.05994 h 1.72858 c 0.0401,0 0.0605,-0.01986 0.0605,-0.05994 l -0.015,-4.328934 2.02881,-6.012037 c 0.01,-0.04008 -0.005,-0.06046 -0.045,-0.06046 h -1.68361 c -0.0401,0 -0.0649,0.02038 -0.0749,0.06046 l -1.12758,4.043164 -1.11207,-4.043164 c -0.01,-0.04008 -0.0403,-0.06046 -0.0904,-0.06046 z m 42.04498,0 c -0.0401,0 -0.0605,0.02038 -0.0605,0.06046 l -0.03,10.325985 c 0,0.0501 0.0199,0.07493 0.0599,0.07493 h 1.6986 c 0.0401,0 0.0605,-0.02483 0.0605,-0.07493 l 0.015,-7.665682 1.56321,2.284615 1.5782,-2.284615 0.015,7.665682 c 0,0.0501 0.0199,0.07493 0.0599,0.07493 h 1.69861 c 0.0401,0 0.0599,-0.02483 0.0599,-0.07493 l -0.03,-10.325985 c 0,-0.04008 -0.0199,-0.06046 -0.06,-0.06046 H 196.249 c -0.0401,0 -0.0754,0.02038 -0.10542,0.06046 l -1.36736,1.983859 -1.36787,-1.983859 c -0.0301,-0.04008 -0.0653,-0.06046 -0.10542,-0.06046 z m -8.43618,1.63866 c 0.31064,0 0.5764,0.120209 0.79685,0.360701 0.22045,0.230472 0.33073,0.506166 0.33073,0.826823 v 0.931726 c 0,0.330677 -0.11028,0.611337 -0.33073,0.841809 -0.21043,0.230472 -0.47619,0.345716 -0.79685,0.345716 -0.31064,0 -0.57588,-0.115244 -0.79633,-0.345716 -0.21043,-0.240492 -0.31575,-0.521152 -0.31575,-0.841809 v -0.931726 c 0,-0.330677 0.10532,-0.611337 0.31575,-0.841809 0.22045,-0.230472 0.48569,-0.345715 0.79633,-0.345715 z m -61.99208,0.150378 c 0.32066,-0.01002 0.59583,0.105223 0.8263,0.345715 0.2405,0.230472 0.36071,0.50565 0.36071,0.826307 v 4.328934 c 0,0.360739 -0.13014,0.67171 -0.39068,0.932243 -0.25051,0.260534 -0.56096,0.390674 -0.93172,0.390674 h -0.93173 l 0.015,-6.808887 z m -12.94546,0.01499 h 1.29294 c 0.32066,0 0.59583,0.115244 0.82631,0.345716 0.24049,0.230472 0.36121,0.505649 0.36121,0.826306 0,0.330677 -0.12072,0.611337 -0.36121,0.841809 -0.2405,0.230472 -0.51567,0.345715 -0.82631,0.345715 h -1.29294 z m 18.24539,1.097091 0.0904,0.556038 0.61598,4.224032 h -1.44281 l 0.67645,-4.224032 z m 21.36046,0 0.0904,0.556038 0.61598,4.224032 h -1.4428 l 0.67644,-4.224032 z m 40.69209,0 0.0899,0.556038 0.6165,4.224032 h -1.4428 l 0.67644,-4.224032 z m -55.32996,5.756754 c -0.0401,0 -0.0605,0.01986 -0.0605,0.05994 v 1.683618 c 0,0.04008 0.0204,0.05994 0.0605,0.05994 h 0.84129 c 0,0.260534 -0.0899,0.486054 -0.27026,0.676444 -0.17035,0.19039 -0.38098,0.285771 -0.63149,0.285771 v 0.931726 c 0.32066,0 0.61621,-0.08493 0.88677,-0.255281 0.28057,-0.160329 0.50609,-0.38585 0.67644,-0.676445 0.17035,-0.290595 0.2558,-0.611497 0.2558,-0.962215 v -1.743563 c 0,-0.04008 -0.0204,-0.05994 -0.0605,-0.05994 z m 42.31525,0 c -0.0401,0 -0.0599,0.01986 -0.0599,0.05994 v 1.683618 c 0,0.04008 0.0199,0.05994 0.0599,0.05994 h 0.84181 c 0,0.260534 -0.0904,0.486054 -0.27079,0.676444 -0.17035,0.19039 -0.38045,0.285771 -0.63097,0.285771 v 0.931726 c 0.32066,0 0.61622,-0.08493 0.88677,-0.255281 0.28057,-0.160329 0.5061,-0.38585 0.67644,-0.676445 0.17035,-0.290595 0.25529,-0.611497 0.25529,-0.962215 v -1.743563 c 0,-0.04008 -0.0199,-0.05994 -0.06,-0.05994 z" />
    </g>
  </g>
</svg>
